<?xml version="1.0" standalone="no"?>
<svg xmlns:xlink="http://www.w3.org/1999/xlink" id="wave" style="transform:rotate(0deg); transition: 0.3s" viewBox="0 0 1440 490" version="1.1" xmlns="http://www.w3.org/2000/svg"><defs><linearGradient id="sw-gradient-0" x1="0" x2="0" y1="1" y2="0"><stop stop-color="rgba(186.018, 239.432, 155.002, 1)" offset="0%"/><stop stop-color="rgba(55.885, 180.309, 191.62, 1)" offset="100%"/></linearGradient></defs><path style="transform:translate(0, 0px); opacity:1" fill="url(#sw-gradient-0)" d="M0,343L120,294C240,245,480,147,720,114.3C960,82,1200,114,1440,130.7C1680,147,1920,147,2160,138.8C2400,131,2640,114,2880,155.2C3120,196,3360,294,3600,302.2C3840,310,4080,229,4320,163.3C4560,98,4800,49,5040,98C5280,147,5520,294,5760,343C6000,392,6240,343,6480,334.8C6720,327,6960,359,7200,367.5C7440,376,7680,359,7920,367.5C8160,376,8400,408,8640,367.5C8880,327,9120,212,9360,171.5C9600,131,9840,163,10080,212.3C10320,261,10560,327,10800,334.8C11040,343,11280,294,11520,269.5C11760,245,12000,245,12240,212.3C12480,180,12720,114,12960,130.7C13200,147,13440,245,13680,269.5C13920,294,14160,245,14400,220.5C14640,196,14880,196,15120,187.8C15360,180,15600,163,15840,130.7C16080,98,16320,49,16560,98C16800,147,17040,294,17160,367.5L17280,441L17280,490L17160,490C17040,490,16800,490,16560,490C16320,490,16080,490,15840,490C15600,490,15360,490,15120,490C14880,490,14640,490,14400,490C14160,490,13920,490,13680,490C13440,490,13200,490,12960,490C12720,490,12480,490,12240,490C12000,490,11760,490,11520,490C11280,490,11040,490,10800,490C10560,490,10320,490,10080,490C9840,490,9600,490,9360,490C9120,490,8880,490,8640,490C8400,490,8160,490,7920,490C7680,490,7440,490,7200,490C6960,490,6720,490,6480,490C6240,490,6000,490,5760,490C5520,490,5280,490,5040,490C4800,490,4560,490,4320,490C4080,490,3840,490,3600,490C3360,490,3120,490,2880,490C2640,490,2400,490,2160,490C1920,490,1680,490,1440,490C1200,490,960,490,720,490C480,490,240,490,120,490L0,490Z"/></svg>